HIERARCHY
ROOT Hips
{
	OFFSET 228.634003 92.561920 -263.051910
	CHANNELS 6 Xposition Yposition Zposition Zrotation Yrotation Xrotation 
	JOINT LeftUpLeg
	{
		OFFSET 0.103458 1.857820 10.548502
		CHANNELS 3 Zrotation Yrotation Xrotation
		JOINT LeftLeg
		{
			OFFSET 43.500000 -0.000023 -0.000011
			CHANNELS 3 Zrotation Yrotation Xrotation
			JOINT LeftFoot
			{
				OFFSET 42.372192 0.000038 0.000002
				CHANNELS 3 Zrotation Yrotation Xrotation
				JOINT LeftToe
				{
					OFFSET 17.299992 -0.000004 0.000006
					CHANNELS 3 Zrotation Yrotation Xrotation
					End Site
					{
						OFFSET 0.000000 0.000000 0.000000
					}
				}
			}
		}
	}
	JOINT RightUpLeg
	{
		OFFSET 0.103461 1.857814 -10.548508
		CHANNELS 3 Zrotation Yrotation Xrotation
		JOINT RightLeg
		{
			OFFSET 43.500042 -0.000015 0.000008
			CHANNELS 3 Zrotation Yrotation Xrotation
			JOINT RightFoot
			{
				OFFSET 42.372253 0.000008 0.000006
				CHANNELS 3 Zrotation Yrotation Xrotation
				JOINT RightToe
				{
					OFFSET 17.299973 -0.000014 0.000011
					CHANNELS 3 Zrotation Yrotation Xrotation
					End Site
					{
						OFFSET 0.000000 0.000000 0.000000
					}
				}
			}
		}
	}
	JOINT Spine
	{
		OFFSET 6.901966 -2.603737 -0.000007
		CHANNELS 3 Zrotation Yrotation Xrotation
		JOINT Spine1
		{
			OFFSET 12.588102 0.000017 0.000001
			CHANNELS 3 Zrotation Yrotation Xrotation
			JOINT Spine2
			{
				OFFSET 12.343197 -0.000013 0.000000
				CHANNELS 3 Zrotation Yrotation Xrotation
				JOINT Neck
				{
					OFFSET 25.832905 -0.000008 0.000000
					CHANNELS 3 Zrotation Yrotation Xrotation
					JOINT Head
					{
						OFFSET 11.766610 0.000009 -0.000002
						CHANNELS 3 Zrotation Yrotation Xrotation
						End Site
						{
							OFFSET 0.000000 0.000000 0.000000
						}
					}
				}
				JOINT LeftShoulder
				{
					OFFSET 19.745903 -1.480377 6.000115
					CHANNELS 3 Zrotation Yrotation Xrotation
					JOINT LeftArm
					{
						OFFSET 11.284125 -0.000014 -0.000024
						CHANNELS 3 Zrotation Yrotation Xrotation
						JOINT LeftForeArm
						{
							OFFSET 33.000046 -0.000012 0.000029
							CHANNELS 3 Zrotation Yrotation Xrotation
							JOINT LeftHand
							{
								OFFSET 25.199989 0.000034 0.000012
								CHANNELS 3 Zrotation Yrotation Xrotation
								End Site
								{
									OFFSET 0.000000 0.000000 0.000000
								}
							}
						}
					}
				}
				JOINT RightShoulder
				{
					OFFSET 19.746098 -1.480362 -6.000071
					CHANNELS 3 Zrotation Yrotation Xrotation
					JOINT RightArm
					{
						OFFSET 11.284137 -0.000006 -0.000008
						CHANNELS 3 Zrotation Yrotation Xrotation
						JOINT RightForeArm
						{
							OFFSET 33.000095 0.000017 0.000000
							CHANNELS 3 Zrotation Yrotation Xrotation
							JOINT RightHand
							{
								OFFSET 25.199778 0.000144 0.000423
								CHANNELS 3 Zrotation Yrotation Xrotation
								End Site
								{
									OFFSET 0.000000 0.000000 0.000000
								}
							}
						}
					}
				}
			}
		}
	}
}
MOTION
Frames: 8
Frame Time: 0.033333
113.260902 90.154533 388.869995 92.018105 6.388770 97.249401 157.378200 -9.792201 172.520238 -52.582071 -3.663496 1.920191 69.913871 -4.467227 -9.186379 21.454553 0.003099 0.000001 178.108780 4.641807 -179.408879 -22.484973 6.228959 11.026742 81.648580 -7.162172 2.646517 21.454558 -0.003099 -0.000017 10.347142 1.152448 0.998294 10.703687 2.207461 2.099357 10.385571 2.220236 2.085995 5.731145 -9.196951 -18.579059 -16.209304 11.901566 -24.556712 -165.469788 -73.228760 -16.358513 -10.183672 57.513806 25.351646 -23.608105 -12.423305 0.956510 16.856704 7.421607 43.744285 -157.921337 71.140177 24.101991 -22.731945 -52.176413 -5.343764 -45.677727 22.104359 -2.115790 3.016320 7.708668 -16.180515 
114.149101 90.290154 389.343506 92.250611 6.085337 95.964110 159.304231 -9.015603 173.966817 -46.773853 -3.219386 -1.439372 70.227527 -1.549609 -7.913531 21.454555 0.003097 -0.000002 178.317675 5.483399 179.866762 -21.787690 6.169021 10.635262 81.308184 -6.819675 2.975128 21.454558 -0.003110 -0.000017 10.247312 1.136153 1.003180 10.503744 2.176398 2.105758 10.185623 2.189220 2.092576 6.335321 -8.804051 -18.038443 -15.920961 10.869689 -23.527217 -165.068610 -73.183196 -16.770633 -6.096272 56.552293 30.961627 -23.543686 -12.523781 0.962033 19.099647 13.268282 52.238735 -157.623895 71.064874 24.409500 -22.904860 -51.828708 -5.988626 -48.636848 22.020815 -2.204921 2.296592 8.780697 -14.614540 
115.026299 90.319511 389.822296 92.190902 6.142704 94.636704 162.062043 -8.336184 177.541916 -40.415916 -3.894067 -4.153055 71.228621 0.802550 -7.043843 21.454551 0.003095 -0.000002 178.779887 6.031811 178.643898 -21.129383 6.345237 10.509491 81.092111 -6.665597 3.302302 21.454558 -0.003114 -0.000020 10.248970 1.197632 0.986273 10.508092 2.300602 2.077700 10.189934 2.313247 2.063773 6.741156 -8.633801 -17.235270 -15.024659 9.799166 -22.183145 -164.785841 -73.412663 -17.059320 -4.345190 55.782459 34.215798 -22.408020 -12.265573 0.929633 19.635216 18.695867 52.771134 -157.838623 71.176910 24.186311 -23.329606 -51.132360 -7.089226 -50.309381 21.759159 -2.243039 2.280721 11.086897 -12.948204 
115.855103 90.279663 390.223907 91.836907 6.392083 93.292201 165.331586 -8.015698 -178.672489 -34.205526 -4.634179 -5.285398 71.443745 1.679668 -6.958641 21.454557 0.003106 0.000002 179.231732 6.262797 177.097639 -20.653220 6.628529 10.567168 80.991714 -6.640482 3.642170 21.454558 -0.003120 -0.000019 10.304981 1.286442 0.920984 10.620823 2.482783 1.956658 10.302598 2.494670 1.941636 7.326758 -7.645680 -15.854940 -13.553509 8.151511 -19.919968 -164.867366 -73.938150 -16.971917 -3.848010 55.200486 34.102212 -21.604291 -11.557600 0.873568 21.375866 22.774473 49.725406 -158.648916 71.330848 23.349929 -24.687563 -50.279355 -8.305209 -49.394869 21.666893 -2.206136 2.959937 13.901782 -10.171595 
116.684601 90.128487 390.555298 91.203618 6.701920 92.113803 168.451221 -7.924203 -176.154062 -29.456844 -4.771253 -4.773000 70.988191 0.978548 -7.886907 21.454550 0.003086 0.000000 179.414945 6.132901 175.009951 -20.713894 6.960654 11.024341 81.072720 -6.840658 4.221107 21.454560 -0.003109 -0.000017 10.367355 1.409556 0.791411 10.745450 2.739348 1.710858 10.427100 2.749791 1.694278 8.868070 -6.013200 -13.970761 -12.245210 5.616556 -16.836988 -166.495970 -74.590331 -15.299320 -4.239603 54.577159 33.456135 -21.533059 -11.308148 0.856608 22.299861 23.618208 46.982727 -159.511418 71.426587 22.460780 -26.357973 -49.698546 -8.492388 -46.826524 21.628825 -2.120110 4.365435 14.870440 -9.061813 
117.506203 90.011299 390.704895 90.646999 6.713085 91.081693 170.470320 -7.655395 -175.224296 -27.340211 -4.833749 -4.597536 72.675036 1.188059 -7.164205 21.454557 0.003105 0.000001 178.984902 6.298204 174.478275 -21.348210 7.205941 10.598105 81.185514 -6.503900 4.486792 21.454562 -0.003122 -0.000019 10.415535 1.475894 0.578830 10.838037 2.890941 1.293842 10.519578 2.898831 1.276361 10.364605 -4.476113 -11.555152 -9.438836 3.560417 -13.378747 -168.001275 -75.227396 -13.756228 -5.711703 53.982250 32.150950 -22.702844 -11.754618 0.900823 22.880500 21.839846 47.654967 -160.656923 71.379056 21.282699 -27.828981 -49.453899 -7.162651 -44.043529 21.512697 -2.026492 5.230712 13.445523 -10.005910 
118.393303 89.897301 390.657501 90.293004 6.410303 90.107790 171.563396 -7.231706 -178.017802 -26.240226 -3.637511 -3.900853 75.577197 1.077422 -6.309780 21.454553 0.003089 0.000001 177.820273 6.664090 174.404864 -22.629429 7.233770 9.890654 81.437117 -5.955663 4.830334 21.454560 -0.003103 -0.000017 10.473105 1.465550 0.363909 10.947791 2.889956 0.865231 10.629297 2.895272 0.847760 12.281439 -2.862876 -9.179411 -6.981740 1.447330 -10.096168 -170.980768 -75.737946 -10.708690 -8.895387 52.877911 29.994584 -23.420768 -11.938453 0.922685 20.104197 17.485433 48.180141 -160.932603 71.127862 21.002296 -28.904975 -49.267490 -6.372799 -41.643202 21.334958 -1.944684 6.369028 12.373513 -11.337954 
119.290901 90.046623 390.304810 90.741297 5.815194 88.947115 171.867244 -6.298801 178.118998 -24.675351 -2.487891 -2.825982 75.229220 0.402676 -5.829979 21.454550 0.003092 0.000002 175.981012 7.591702 173.931573 -24.061283 6.901403 9.238189 81.190308 -5.365989 5.476373 21.454557 -0.003114 -0.000019 10.657598 1.223847 0.157151 11.309471 2.426358 0.433367 10.991060 2.429064 0.418711 13.370581 -1.502616 -6.916625 -5.450148 -0.395443 -7.159756 -175.385078 -76.541067 -6.213669 -13.163371 51.637934 26.885271 -24.550111 -12.290779 0.961919 16.531150 11.289715 49.988409 -161.815610 70.863513 20.096416 -29.525197 -49.195971 -4.724019 -40.023850 21.012478 -1.878435 6.941885 8.601045 -8.011336 
